<svg xmlns="http://www.w3.org/2000/svg" width="128" height="128" viewBox="0 0 128 128" role="img" aria-label="PanSub icon">
  <defs>
    <linearGradient id="bg" x1="18" y1="10" x2="110" y2="120" gradientUnits="userSpaceOnUse">
      <stop offset="0" stop-color="#2B7FFF"/>
      <stop offset="0.52" stop-color="#16B8A6"/>
      <stop offset="1" stop-color="#111827"/>
    </linearGradient>
    <linearGradient id="shine" x1="36" y1="22" x2="98" y2="105" gradientUnits="userSpaceOnUse">
      <stop offset="0" stop-color="#FFFFFF" stop-opacity="0.34"/>
      <stop offset="1" stop-color="#FFFFFF" stop-opacity="0"/>
    </linearGradient>
    <filter id="shadow" x="-24%" y="-24%" width="148%" height="148%">
      <feDropShadow dx="0" dy="10" stdDeviation="10" flood-color="#0F172A" flood-opacity="0.28"/>
    </filter>
  </defs>
  <rect x="10" y="10" width="108" height="108" rx="28" fill="url(#bg)" filter="url(#shadow)"/>
  <rect x="17" y="17" width="94" height="94" rx="23" fill="url(#shine)"/>
  <path d="M37 85V38h30.6c12.5 0 21.2 8 21.2 19.2 0 11.3-8.7 19.4-21.2 19.4H51.9V85H37Zm14.9-20.9h14.2c4.8 0 7.9-2.7 7.9-6.9 0-4.1-3.1-6.8-7.9-6.8H51.9v13.7Z" fill="#FFFFFF"/>
  <rect x="35" y="91" width="58" height="8" rx="4" fill="#FFFFFF" opacity="0.88"/>
</svg>
